<svg xmlns="http://www.w3.org/2000/svg" viewBox="0 0 1200 198" width="1200" height="198" shape-rendering="crispEdges" role="img" aria-label="Pixel-art sea seen from above: crimson light rippling across dark water that fades to black in the depths"><style>*{shape-rendering:crispEdges}@keyframes c{0%{opacity:0.12}3.125%{opacity:0.128}6.25%{opacity:0.151}9.375%{opacity:0.189}12.5%{opacity:0.24}15.625%{opacity:0.302}18.75%{opacity:0.373}21.875%{opacity:0.45}25%{opacity:0.53}28.125%{opacity:0.61}31.25%{opacity:0.687}34.375%{opacity:0.758}37.5%{opacity:0.82}40.625%{opacity:0.871}43.75%{opacity:0.909}46.875%{opacity:0.932}50%{opacity:0.94}53.125%{opacity:0.932}56.25%{opacity:0.909}59.375%{opacity:0.871}62.5%{opacity:0.82}65.625%{opacity:0.758}68.75%{opacity:0.687}71.875%{opacity:0.61}75%{opacity:0.53}78.125%{opacity:0.45}81.25%{opacity:0.373}84.375%{opacity:0.302}87.5%{opacity:0.24}90.625%{opacity:0.189}93.75%{opacity:0.151}96.875%{opacity:0.128}100%{opacity:0.12}}.k0{opacity:0.12;animation:c 16s step-end 0s infinite}.k1{opacity:0.151;animation:c 16s step-end -1s infinite}.k2{opacity:0.24;animation:c 16s step-end -2s infinite}.k3{opacity:0.373;animation:c 16s step-end -3s infinite}.k4{opacity:0.53;animation:c 16s step-end -4s infinite}.k5{opacity:0.687;animation:c 16s step-end -5s infinite}.k6{opacity:0.82;animation:c 16s step-end -6s infinite}.k7{opacity:0.909;animation:c 16s step-end -7s infinite}.k8{opacity:0.94;animation:c 16s step-end -8s infinite}.k9{opacity:0.909;animation:c 16s step-end -9s infinite}.k10{opacity:0.82;animation:c 16s step-end -10s infinite}.k11{opacity:0.687;animation:c 16s step-end -11s infinite}.k12{opacity:0.53;animation:c 16s step-end -12s infinite}.k13{opacity:0.373;animation:c 16s step-end -13s infinite}.k14{opacity:0.24;animation:c 16s step-end -14s infinite}.k15{opacity:0.151;animation:c 16s step-end -15s infinite}@keyframes r18{to{transform:translateY(-108px)}}@keyframes r22{to{transform:translateY(-132px)}}@keyframes r26{to{transform:translateY(-156px)}}@keyframes f{0%{opacity:0}8%{opacity:.17}22%{opacity:.31}62%{opacity:.31}78%{opacity:.2}88%{opacity:.11}94%{opacity:.04}100%{opacity:0}}.b1{opacity:.25;animation:r22 24s steps(22) 0s infinite,f 24s step-end 0s infinite}.b2{opacity:.25;animation:r22 24s steps(22) -9s infinite,f 24s step-end -9s infinite}.b3{opacity:.25;animation:r22 24s steps(22) -17s infinite,f 24s step-end -17s infinite}.b4{opacity:.25;animation:r26 48s steps(26) -12s infinite,f 48s step-end -12s infinite}.b5{opacity:.25;animation:r26 48s steps(26) -33s infinite,f 48s step-end -33s infinite}.b6{opacity:.25;animation:r18 16s steps(18) -5s infinite,f 16s step-end -5s infinite}.b7{opacity:.25;animation:r18 16s steps(18) -11s infinite,f 16s step-end -11s infinite}.b8{opacity:.25;animation:r22 48s steps(22) -25s infinite,f 48s step-end -25s infinite}@keyframes s{from{transform:translateX(1200px)}to{transform:translateX(-318px)}}#s{animation:s 48s steps(253) -23.8s infinite}@media(prefers-reduced-motion:reduce){*{animation:none!important}}</style><defs><pattern id="q0" width="48" height="12" patternUnits="userSpaceOnUse"><path d="M0 0h6v6H0zM18 0h6v6H18zM36 0h6v6H36zM6 6h6v6H6zM12 6h6v6H12zM24 6h6v6H24zM30 6h6v6H30zM42 6h6v6H42z" fill="#3c1115"/></pattern><pattern id="q1" width="48" height="12" patternUnits="userSpaceOnUse"><path d="M12 0h6v6H12zM30 0h6v6H30zM42 0h6v6H42zM0 6h6v6H0zM6 6h6v6H6zM18 6h6v6H18zM24 6h6v6H24zM36 6h6v6H36z" fill="#2f0e12"/></pattern><pattern id="q2" width="48" height="12" patternUnits="userSpaceOnUse"><path d="M6 0h6v6H6zM24 0h6v6H24zM36 0h6v6H36zM0 6h6v6H0zM12 6h6v6H12zM18 6h6v6H18zM30 6h6v6H30zM42 6h6v6H42z" fill="#240b0f"/></pattern><pattern id="q3" width="48" height="12" patternUnits="userSpaceOnUse"><path d="M0 0h6v6H0zM12 0h6v6H12zM30 0h6v6H30zM6 6h6v6H6zM18 6h6v6H18zM24 6h6v6H24zM36 6h6v6H36zM42 6h6v6H42z" fill="#1a0a0c"/></pattern><pattern id="q4" width="48" height="12" patternUnits="userSpaceOnUse"><path d="M18 0h6v6H18zM30 0h6v6H30zM0 0h6v6H0zM6 6h6v6H6zM12 6h6v6H12zM24 6h6v6H24zM36 6h6v6H36zM42 6h6v6H42z" fill="#12090b"/></pattern><pattern id="q5" width="48" height="12" patternUnits="userSpaceOnUse"><path d="M12 0h6v6H12zM24 0h6v6H24zM42 0h6v6H42zM0 6h6v6H0zM6 6h6v6H6zM18 6h6v6H18zM30 6h6v6H30zM36 6h6v6H36z" fill="#0a0a0b"/></pattern><pattern id="g0" width="24" height="12" patternUnits="userSpaceOnUse"><path d="M0 0h6v6H0zM12 0h6v6h-6zM6 6h6v6H6z" fill="#7a1c1e"/></pattern></defs><rect width="1200" height="198" fill="#0a0a0b"/><rect y="0" width="1200" height="18" fill="#4a1519"/><rect y="18" width="1200" height="12" fill="#4a1519"/><rect y="30" width="1200" height="18" fill="#3c1115"/><rect y="48" width="1200" height="12" fill="#3c1115"/><rect y="60" width="1200" height="18" fill="#2f0e12"/><rect y="78" width="1200" height="12" fill="#2f0e12"/><rect y="90" width="1200" height="18" fill="#240b0f"/><rect y="108" width="1200" height="12" fill="#240b0f"/><rect y="120" width="1200" height="18" fill="#1a0a0c"/><rect y="138" width="1200" height="12" fill="#1a0a0c"/><rect y="150" width="1200" height="18" fill="#12090b"/><rect y="168" width="1200" height="12" fill="#12090b"/><rect y="180" width="1200" height="18" fill="#0a0a0b"/><rect y="18" width="1200" height="12" fill="url(#q0)"/><rect y="48" width="1200" height="12" fill="url(#q1)"/><rect y="78" width="1200" height="12" fill="url(#q2)"/><rect y="108" width="1200" height="12" fill="url(#q3)"/><rect y="138" width="1200" height="12" fill="url(#q4)"/><rect y="168" width="1200" height="12" fill="url(#q5)"/><rect width="1200" height="12" fill="url(#g0)"/><path fill="#33131a" opacity=".55" d="M84 60h6v6h-6zM750 60h6v6h-6zM1188 66h6v6h-6zM258 72h6v6h-6zM558 72h6v6h-6zM660 72h6v6h-6zM762 72h6v6h-6zM774 72h6v6h-6zM972 72h6v6h-6zM54 78h6v6h-6zM168 78h6v6h-6zM348 78h6v6h-6zM378 78h6v6h-6zM426 78h6v6h-6zM30 84h6v6h-6zM126 84h6v6h-6zM186 84h6v6h-6zM258 84h6v6h-6zM354 84h6v6h-6zM840 84h6v6h-6zM1188 84h6v6h-6zM378 90h6v6h-6zM600 90h6v6h-6zM678 90h6v6h-6zM702 90h6v6h-6zM762 90h6v6h-6zM90 96h6v6h-6zM114 96h6v6h-6zM294 96h6v6h-6zM774 96h6v6h-6zM840 96h6v6h-6zM1110 96h6v6h-6zM1158 96h6v6h-6zM72 102h6v6h-6zM84 102h6v6h-6zM612 102h6v6h-6zM984 102h6v6h-6zM24 108h6v6h-6zM90 108h6v6h-6zM114 108h12v6h-12zM312 108h6v6h-6zM750 108h6v6h-6zM1128 108h6v6h-6zM60 114h6v6h-6zM402 114h6v6h-6zM420 114h6v6h-6zM534 114h6v6h-6zM1134 114h6v6h-6zM1176 114h6v6h-6zM252 120h6v6h-6zM348 120h6v6h-6zM564 120h6v6h-6zM576 120h6v6h-6zM840 120h6v6h-6zM972 120h6v6h-6zM1158 120h6v6h-6zM708 126h6v6h-6zM948 126h6v6h-6zM1104 126h6v6h-6zM60 132h6v6h-6zM222 132h6v6h-6zM396 132h6v6h-6zM516 132h6v6h-6zM600 132h6v6h-6zM1176 132h6v6h-6zM390 138h6v6h-6zM666 138h6v6h-6zM750 138h6v6h-6zM48 144h6v6h-6zM66 144h6v6h-6zM306 144h6v6h-6zM318 144h6v6h-6zM408 144h6v6h-6zM1086 144h6v6h-6zM1170 144h6v6h-6zM18 150h6v6h-6zM126 150h6v6h-6zM174 150h6v6h-6zM300 150h6v6h-6zM348 150h6v6h-6zM660 150h6v6h-6zM1104 150h6v6h-6zM1128 150h6v6h-6zM1140 150h6v6h-6zM564 156h6v6h-6zM774 156h6v6h-6zM804 156h6v6h-6zM1140 156h6v6h-6zM78 162h6v6h-6zM360 162h6v6h-6zM762 162h6v6h-6zM846 162h6v6h-6zM1014 162h6v6h-6zM0 168h6v6h-6zM96 168h6v6h-6zM804 168h6v6h-6zM36 174h6v6h-6zM114 174h6v6h-6zM402 174h12v6h-12zM522 174h6v6h-6zM684 174h6v6h-6zM96 180h6v6h-6zM192 180h6v6h-6zM228 180h6v6h-6zM252 180h6v6h-6zM462 180h6v6h-6zM504 180h6v6h-6zM1080 180h6v6h-6zM1110 180h6v6h-6zM108 186h6v6h-6zM126 186h6v6h-6zM408 186h6v6h-6zM858 186h6v6h-6zM78 192h6v6h-6zM300 192h6v6h-6zM468 192h6v6h-6zM804 192h6v6h-6z"/><path fill="#241016" opacity=".8" d="M30 156h6v6h-6zM42 156h6v6h-6zM162 156h12v6h-12zM222 156h6v6h-6zM252 156h6v6h-6zM402 156h6v6h-6zM558 156h6v6h-6zM588 156h6v6h-6zM732 156h6v6h-6zM1194 156h6v6h-6zM168 162h6v6h-6zM726 162h6v6h-6zM498 168h6v6h-6zM540 168h6v6h-6zM660 168h6v6h-6zM258 174h6v6h-6zM594 174h6v6h-6zM150 180h6v6h-6zM972 180h6v6h-6zM1104 180h6v6h-6zM102 186h6v6h-6zM234 186h6v6h-6zM372 186h6v6h-6zM456 186h6v6h-6zM546 186h6v6h-6zM606 186h6v6h-6zM810 186h12v6h-12zM984 186h6v6h-6zM1152 186h6v6h-6zM198 192h6v6h-6zM858 192h6v6h-6zM1002 192h6v6h-6z"/><g transform="translate(0 126)"><g id="s" transform="translate(450 0)"><path fill="#070609" d="M0 6h24v6h-24zM156 6h36v6h-36zM6 12h24v6h-24zM108 12h150v6h-150zM12 18h24v6h-24zM66 18h222v6h-222zM6 24h300v6h-300zM6 30h42v6h-42zM54 30h234v6h-234zM294 30h12v6h-12zM6 36h18v6h-18zM60 36h12v6h-12zM78 36h186v6h-186zM270 36h6v6h-6zM102 42h18v6h-18zM126 42h18v6h-18zM150 42h18v6h-18zM174 42h66v6h-66zM186 48h6v6h-6zM198 48h18v6h-18zM222 48h12v6h-12z"/><path fill="#331519" opacity=".62" d="M0 0h6v6h-6zM12 0h6v6h-6zM156 0h6v6h-6zM168 0h6v6h-6zM180 0h6v6h-6zM24 6h6v6h-6zM108 6h6v6h-6zM120 6h6v6h-6zM132 6h6v6h-6zM144 6h6v6h-6zM192 6h6v6h-6zM204 6h6v6h-6zM216 6h6v6h-6zM228 6h6v6h-6zM240 6h6v6h-6zM252 6h6v6h-6zM72 12h6v6h-6zM84 12h6v6h-6zM96 12h6v6h-6zM264 12h6v6h-6zM276 12h6v6h-6zM36 18h6v6h-6zM48 18h6v6h-6zM60 18h6v6h-6zM288 18h6v6h-6zM300 18h6v6h-6z"/><path fill="#1d0c10" opacity=".7" d="M6 0h6v6h-6zM18 0h6v6h-6zM162 0h6v6h-6zM174 0h6v6h-6zM186 0h6v6h-6zM114 6h6v6h-6zM126 6h6v6h-6zM138 6h6v6h-6zM150 6h6v6h-6zM198 6h6v6h-6zM210 6h6v6h-6zM222 6h6v6h-6zM234 6h6v6h-6zM246 6h6v6h-6zM30 12h6v6h-6zM66 12h6v6h-6zM78 12h6v6h-6zM90 12h6v6h-6zM102 12h6v6h-6zM258 12h6v6h-6zM270 12h6v6h-6zM282 12h6v6h-6zM42 18h6v6h-6zM54 18h6v6h-6zM294 18h6v6h-6zM306 24h6v6h-6zM48 30h6v6h-6zM288 30h6v6h-6zM0 36h6v6h-6zM24 36h6v6h-6zM72 36h6v6h-6zM264 36h6v6h-6zM96 42h6v6h-6zM120 42h6v6h-6zM144 42h6v6h-6zM168 42h6v6h-6zM240 42h6v6h-6zM192 48h6v6h-6zM216 48h6v6h-6z"/></g></g><g><path class="k0" fill="#b71c1c" d="M312 6h6v6h-6zM294 12h12v6h-12zM0 18h12v6h-12zM306 24h6v6h-6zM300 30h6v6h-6z"/><path class="k1" fill="#b71c1c" d="M324 0h12v6h-12zM30 12h6v6h-6zM12 18h6v6h-6zM312 24h6v6h-6zM918 24h6v6h-6zM618 30h6v6h-6zM6 36h6v6h-6zM306 36h6v6h-6zM918 36h6v6h-6zM912 42h6v6h-6zM294 60h6v6h-6z"/><path class="k2" fill="#b71c1c" d="M48 0h6v6h-6zM642 0h6v6h-6zM642 6h6v6h-6zM948 6h6v6h-6zM648 12h6v6h-6zM930 18h6v6h-6zM330 24h12v6h-12zM624 30h12v6h-12zM636 36h6v6h-6zM318 66h6v6h-6z"/><path class="k3" fill="#b71c1c" d="M972 0h6v6h-6zM654 18h6v6h-6zM654 24h6v6h-6zM654 30h6v6h-6zM342 54h6v6h-6z"/><path class="k4" fill="#b71c1c" d="M390 0h6v6h-6zM978 0h18v6h-18zM660 30h12v6h-12zM354 60h6v6h-6zM654 66h6v6h-6z"/><path class="k5" fill="#b71c1c" d="M108 0h6v6h-6zM996 0h18v6h-18zM384 30h6v6h-6zM990 30h12v6h-12zM690 36h6v6h-6zM84 48h6v6h-6zM366 66h6v6h-6zM66 72h6v6h-6zM966 72h6v6h-6z"/><path class="k6" fill="#b71c1c" d="M720 0h6v6h-6zM1014 0h6v6h-6zM114 6h6v6h-6zM714 6h6v6h-6zM714 12h6v6h-6zM114 18h6v6h-6zM108 24h6v6h-6zM1014 24h6v6h-6zM108 36h6v6h-6zM96 42h6v6h-6zM696 48h6v6h-6zM690 54h6v6h-6zM90 66h6v6h-6z"/><path class="k7" fill="#b71c1c" d="M1026 18h6v6h-6zM726 24h12v6h-12zM432 30h6v6h-6zM114 36h12v6h-12zM1014 42h6v6h-6zM1008 48h6v6h-6zM1008 60h6v6h-6zM102 66h18v6h-18zM96 96h6v6h-6z"/><path class="k8" fill="#b71c1c" d="M462 0h6v6h-6zM1056 6h12v6h-12zM738 30h12v6h-12zM132 36h12v6h-12zM750 36h6v6h-6zM432 48h6v6h-6zM1032 66h6v6h-6z"/><path class="k9" fill="#b71c1c" d="M180 0h12v6h-12zM1068 6h6v6h-6zM462 18h6v6h-6z"/><path class="k10" fill="#b71c1c" d="M192 0h18v6h-18zM186 6h6v6h-6zM186 12h6v6h-6zM780 18h6v6h-6zM786 24h6v6h-6zM762 60h6v6h-6z"/><path class="k11" fill="#b71c1c" d="M210 0h6v6h-6zM204 24h6v6h-6zM186 42h18v6h-18zM180 66h6v6h-6zM1074 72h6v6h-6zM168 96h6v6h-6z"/><path class="k12" fill="#b71c1c" d="M240 6h6v6h-6zM1134 12h6v6h-6zM516 18h12v6h-12zM210 30h6v6h-6zM828 30h6v6h-6zM216 36h6v6h-6zM1116 36h6v6h-6zM204 42h18v6h-18zM210 48h12v6h-12zM504 48h12v6h-12zM204 54h6v6h-6zM1110 66h6v6h-6z"/><path class="k13" fill="#b71c1c" d="M1146 0h6v6h-6zM1146 6h6v6h-6zM1140 12h12v6h-12zM1146 18h6v6h-6zM840 24h12v6h-12zM1140 24h6v6h-6zM834 30h12v6h-12zM828 36h6v6h-6zM828 42h6v6h-6zM222 48h12v6h-12zM1122 54h6v6h-6zM528 60h6v6h-6zM1116 60h6v6h-6zM1116 72h6v6h-6z"/><path class="k14" fill="#b71c1c" d="M564 0h6v6h-6zM570 6h6v6h-6zM570 12h6v6h-6zM858 12h6v6h-6zM558 18h12v6h-12zM1158 18h12v6h-12zM558 30h6v6h-6zM840 72h6v6h-6zM834 78h6v6h-6z"/><path class="k15" fill="#b71c1c" d="M276 12h18v6h-18zM1176 18h6v6h-6zM264 54h6v6h-6z"/><path class="k0" fill="#8b0000" d="M306 6h6v6h-6zM306 12h6v6h-6zM306 18h6v6h-6zM300 24h6v6h-6z"/><path class="k1" fill="#8b0000" d="M336 0h6v6h-6zM636 0h6v6h-6zM318 6h6v6h-6zM18 18h6v6h-6zM318 24h12v6h-12zM912 24h6v6h-6zM924 24h6v6h-6zM18 30h6v6h-6zM306 30h6v6h-6zM312 42h6v6h-6zM912 48h6v6h-6zM606 54h6v6h-6z"/><path class="k2" fill="#8b0000" d="M42 0h6v6h-6zM42 6h6v6h-6zM936 12h6v6h-6zM342 24h6v6h-6zM636 30h6v6h-6zM924 36h6v6h-6zM318 42h6v6h-6zM630 42h6v6h-6zM324 48h6v6h-6zM918 54h6v6h-6zM924 60h6v6h-6z"/><path class="k3" fill="#8b0000" d="M960 0h12v6h-12zM648 18h6v6h-6zM348 24h6v6h-6zM648 24h6v6h-6zM660 24h6v6h-6zM642 30h12v6h-12z"/><path class="k4" fill="#8b0000" d="M384 0h6v6h-6zM378 30h6v6h-6zM978 30h6v6h-6zM66 54h6v6h-6zM348 60h6v6h-6zM642 66h6v6h-6z"/><path class="k5" fill="#8b0000" d="M102 0h6v6h-6zM396 0h6v6h-6zM96 24h6v6h-6zM390 30h6v6h-6zM984 30h6v6h-6zM684 36h6v6h-6zM972 72h6v6h-6z"/><path class="k6" fill="#8b0000" d="M1020 0h12v6h-12zM114 12h12v6h-12zM714 18h12v6h-12zM102 24h6v6h-6zM1002 30h6v6h-6zM696 42h6v6h-6z"/><path class="k7" fill="#8b0000" d="M1032 0h6v6h-6zM438 6h12v6h-12zM1044 6h6v6h-6zM1032 12h12v6h-12zM426 30h6v6h-6zM126 36h6v6h-6z"/><path class="k8" fill="#8b0000" d="M456 0h6v6h-6zM468 0h6v6h-6zM450 6h6v6h-6zM1050 6h6v6h-6zM456 18h6v6h-6zM444 24h12v6h-12zM438 30h6v6h-6zM750 30h6v6h-6zM144 36h6v6h-6zM420 60h6v6h-6zM426 66h6v6h-6z"/><path class="k9" fill="#8b0000" d="M174 0h6v6h-6zM180 6h6v6h-6zM1074 6h12v6h-12zM780 12h6v6h-6zM468 18h6v6h-6zM774 18h6v6h-6zM756 36h6v6h-6zM756 42h12v6h-12zM1038 66h6v6h-6z"/><path class="k10" fill="#8b0000" d="M798 0h12v6h-12zM192 6h6v6h-6zM792 6h6v6h-6zM1086 6h6v6h-6zM192 12h6v6h-6zM192 18h6v6h-6zM780 24h6v6h-6zM792 24h6v6h-6zM768 48h6v6h-6z"/><path class="k11" fill="#8b0000" d="M216 0h6v6h-6zM198 18h6v6h-6zM510 18h6v6h-6zM174 66h6v6h-6zM1080 72h6v6h-6z"/><path class="k12" fill="#8b0000" d="M1140 0h6v6h-6zM234 6h6v6h-6zM1134 6h12v6h-12zM1122 12h12v6h-12zM528 18h12v6h-12zM822 30h6v6h-6zM1128 30h6v6h-6zM210 36h6v6h-6zM1110 36h6v6h-6zM222 42h6v6h-6zM204 48h6v6h-6zM516 48h6v6h-6zM504 72h6v6h-6z"/><path class="k13" fill="#8b0000" d="M1152 0h6v6h-6zM246 6h6v6h-6zM1152 6h6v6h-6zM1152 12h6v6h-6zM546 18h12v6h-12zM846 18h12v6h-12zM1140 18h6v6h-6zM846 30h6v6h-6zM1134 30h6v6h-6zM834 36h6v6h-6zM534 42h6v6h-6zM234 48h6v6h-6zM834 48h6v6h-6z"/><path class="k14" fill="#8b0000" d="M570 0h6v6h-6zM876 0h6v6h-6zM864 6h12v6h-12zM270 12h6v6h-6zM564 12h6v6h-6zM570 18h6v6h-6zM564 24h6v6h-6zM852 30h12v6h-12zM546 36h6v6h-6z"/><path class="k15" fill="#8b0000" d="M882 0h6v6h-6zM1182 18h6v6h-6zM570 24h12v6h-12zM270 54h6v6h-6z"/><path class="k13" fill="#e8e6e3" d="M1152 18h6v6h-6z"/><path class="k14" fill="#e8e6e3" d="M1170 18h6v6h-6z"/></g><g><path class="b1" fill="#847c7a" d="M84 186h6v6h-6z"/><path class="b6" fill="#847c7a" d="M84 162h6v6h-6z"/><path class="b4" fill="#847c7a" d="M90 132h12v12h-12z"/><path class="b2" fill="#847c7a" d="M198 180h12v12h-12z"/><path class="b7" fill="#847c7a" d="M204 150h6v6h-6z"/><path class="b3" fill="#847c7a" d="M198 114h6v6h-6z"/><path class="b3" fill="#e8e6e3" d="M312 192h6v6h-6z"/><path class="b1" fill="#e8e6e3" d="M312 168h6v6h-6z"/><path class="b5" fill="#847c7a" d="M318 138h12v12h-12z"/><path class="b8" fill="#847c7a" d="M426 174h12v12h-12z"/><path class="b2" fill="#847c7a" d="M426 144h6v6h-6z"/><path class="b6" fill="#847c7a" d="M432 120h6v6h-6z"/><path class="b5" fill="#847c7a" d="M576 186h6v6h-6z"/><path class="b3" fill="#847c7a" d="M576 156h12v12h-12z"/><path class="b7" fill="#847c7a" d="M582 126h6v6h-6z"/><path class="b4" fill="#e8e6e3" d="M708 180h6v6h-6z"/><path class="b8" fill="#e8e6e3" d="M708 150h6v6h-6z"/><path class="b1" fill="#847c7a" d="M714 108h6v6h-6z"/><path class="b6" fill="#847c7a" d="M822 192h12v12h-12z"/><path class="b2" fill="#847c7a" d="M822 162h6v6h-6z"/><path class="b4" fill="#847c7a" d="M828 132h6v6h-6z"/><path class="b7" fill="#847c7a" d="M960 174h6v6h-6z"/><path class="b1" fill="#847c7a" d="M960 138h12v12h-12z"/><path class="b5" fill="#847c7a" d="M966 114h6v6h-6z"/><path class="b2" fill="#847c7a" d="M1086 186h6v6h-6z"/><path class="b5" fill="#847c7a" d="M1086 156h6v6h-6z"/><path class="b8" fill="#847c7a" d="M1092 126h12v12h-12z"/></g></svg>